# This file uses centimeters as units for non-parametric coordinates.

mtllib shadow.mtl
v 7.009134 0.000000 -7.364100
v 7.058837 0.000000 -2.840998
v -6.957808 0.000000 2.328262
v 7.058838 0.000000 6.851364
v 6.512089 0.000000 7.447816
v -6.411059 0.000000 7.421990
v -6.957808 0.000000 6.924296
v 7.058838 0.000000 2.179148
v -7.007513 0.000000 -3.139225
v -7.007513 0.000000 -7.165282
v -5.914014 0.000000 -8.706119
v -4.174361 0.000000 -10.048138
v -1.540026 0.000000 -10.942818
v 0.050515 0.000000 -11.091930
v 1.641056 0.000000 -10.893114
v 4.275391 0.000000 -9.998434
v 6.015046 0.000000 -8.656415
vt 0.799542 0.608305
vt 0.707889 0.475175
vt 0.674528 0.241644
vt 0.651303 0.239371
vt 0.266917 0.454400
vt 0.119613 0.532635
vt 0.117432 0.700030
vt 0.117432 0.769319
vt 0.165421 0.782933
vt 0.241768 0.785499
vt 0.357379 0.769808
vt 0.427181 0.753604
vt 0.496984 0.731412
vt 0.612595 0.684925
vt 0.687487 0.638390
vt 0.117432 0.608499
vt 0.688172 0.351725
vn 0.000000 1.000000 0.000000
vn 0.000000 1.000000 0.000000
vn 0.000000 1.000000 0.000000
vn 0.000000 1.000000 0.000000
vn 0.000000 1.000000 0.000000
vn 0.000000 1.000000 0.000000
vn 0.000000 1.000000 0.000000
vn 0.000000 1.000000 0.000000
vn 0.000000 1.000000 0.000000
vn 0.000000 1.000000 0.000000
vn 0.000000 1.000000 0.000000
vn 0.000000 1.000000 0.000000
vn 0.000000 1.000000 0.000000
vn 0.000000 1.000000 0.000000
vn 0.000000 1.000000 0.000000
vn 0.000000 1.000000 0.000000
vn 0.000000 1.000000 0.000000
vn 0.000000 1.000000 0.000000
vn 0.000000 1.000000 0.000000
vn 0.000000 1.000000 0.000000
vn 0.000000 1.000000 0.000000
vn 0.000000 1.000000 0.000000
vn 0.000000 1.000000 0.000000
usemtl mat_shadow
f 10/8/1 9/7/2 1/1/3
f 1/1/3 9/7/2 2/2/4
f 1/1/3 17/15/5 10/8/1
f 17/15/5 16/14/6 10/8/1
f 10/8/1 16/14/6 11/9/7
f 16/14/6 12/10/8 11/9/7
f 4/3/9 7/6/10 5/4/11
f 5/4/11 7/6/10 6/5/12
f 12/10/8 16/14/6 13/11/13
f 13/11/13 16/14/6 14/12/14
f 16/14/6 15/13/15 14/12/14
f 9/7/16 3/17/17 2/2/18
f 2/2/18 3/17/17 8/16/19
f 3/17/20 7/6/21 8/16/22
f 8/16/22 7/6/21 4/3/23
