# This file uses centimeters as units for non-parametric coordinates.

mtllib wheel.mtl
v 2.257212 1.618063 1.679845
v 2.468462 -0.001735 -0.001324
v 2.259067 2.297011 0.406767
v 2.255253 0.320486 2.310712
v 2.253935 -1.100091 2.058392
v 2.253764 -2.101052 1.019268
v 2.254804 -2.300066 -0.409750
v 2.256658 -1.621119 -1.682828
v 2.258618 -0.323542 -2.313695
v 2.259934 1.097035 -2.061376
v 2.260106 2.097996 -1.022252
v -0.510228 1.620768 1.677651
v -0.508373 2.299716 0.404572
v -0.512187 0.323191 2.308517
v -0.507333 2.100701 -1.024446
v -0.507505 1.099740 -2.063570
v -0.508821 -0.320837 -2.315890
v -0.510781 -1.618414 -1.685023
v -0.512635 -2.297362 -0.411945
v -0.513675 -2.098346 1.017074
v -0.513504 -1.097385 2.056197
v -0.943869 0.001601 -0.004030
vt 0.095491 0.553656
vt 0.250000 0.755910
vt 0.000000 0.678656
vt 0.250000 0.505910
vt 0.250000 0.755910
vt 0.095491 0.553656
vt 0.404508 0.553656
vt 0.250000 0.755910
vt 0.250000 0.505910
vt 0.500000 0.678656
vt 0.250000 0.755910
vt 0.404508 0.553656
vt 0.500000 0.833164
vt 0.250000 0.755910
vt 0.500000 0.678656
vt 0.404508 0.958164
vt 0.250000 0.755910
vt 0.500000 0.833164
vt 0.250000 1.005910
vt 0.250000 0.755910
vt 0.404508 0.958164
vt 0.095491 0.958164
vt 0.250000 0.755910
vt 0.250000 1.005910
vt 0.000000 0.833164
vt 0.250000 0.755910
vt 0.095491 0.958164
vt 0.000000 0.678656
vt 0.250000 0.755910
vt 0.000000 0.833164
vt 0.353198 0.250000
vt 0.004582 0.250000
vt 0.353198 0.000000
vt 0.004582 0.500000
vt 0.004582 0.250000
vt 0.353198 0.250000
vt 0.353198 0.500000
vt 0.004582 0.500000
vt 0.353198 0.250000
vt 0.004582 0.250000
vt 0.004582 0.000000
vt 0.353198 0.000000
vt 0.353198 0.500000
vt 0.004582 0.500000
vt 0.353198 0.250000
vt 0.004582 0.500000
vt 0.004582 0.250000
vt 0.353198 0.250000
vt 0.353198 0.250000
vt 0.004582 0.250000
vt 0.353198 0.000000
vt 0.004582 0.250000
vt 0.004582 0.000000
vt 0.353198 0.000000
vt 0.353198 0.500000
vt 0.004582 0.500000
vt 0.353198 0.250000
vt 0.004582 0.500000
vt 0.004582 0.250000
vt 0.353198 0.250000
vt 0.353198 0.250000
vt 0.004582 0.250000
vt 0.353198 0.000000
vt 0.004582 0.250000
vt 0.004582 0.000000
vt 0.353198 0.000000
vt 0.353198 0.500000
vt 0.004582 0.500000
vt 0.353198 0.250000
vt 0.004582 0.500000
vt 0.004582 0.250000
vt 0.353198 0.250000
vt 0.353198 0.250000
vt 0.004582 0.250000
vt 0.353198 0.000000
vt 0.004582 0.250000
vt 0.004582 0.000000
vt 0.353198 0.000000
vt 0.353198 0.500000
vt 0.004582 0.500000
vt 0.353198 0.250000
vt 0.004582 0.500000
vt 0.004582 0.250000
vt 0.353198 0.250000
vt 0.353198 0.250000
vt 0.004582 0.250000
vt 0.353198 0.000000
vt 0.004582 0.250000
vt 0.004582 0.000000
vt 0.353198 0.000000
vt 0.690286 0.164758
vt 0.523269 0.242012
vt 0.626491 0.039758
vt 0.690286 0.319266
vt 0.523269 0.242012
vt 0.690286 0.164758
vt 0.626491 0.444266
vt 0.523269 0.242012
vt 0.690286 0.319266
vt 0.523269 0.492012
vt 0.523269 0.242012
vt 0.626491 0.444266
vt 0.420047 0.444266
vt 0.523269 0.242012
vt 0.523269 0.492012
vt 0.356252 0.319266
vt 0.523269 0.242012
vt 0.420047 0.444266
vt 0.356252 0.164758
vt 0.523269 0.242012
vt 0.356252 0.319266
vt 0.420047 0.039758
vt 0.523269 0.242012
vt 0.356252 0.164758
vt 0.523269 -0.007988
vt 0.523269 0.242012
vt 0.420047 0.039758
vt 0.626491 0.039758
vt 0.523269 0.242012
vt 0.523269 -0.007988
vn 0.528603 0.647531 0.548892
vn 0.999999 -0.001083 0.000879
vn 0.529199 0.846140 0.063209
vn 0.527928 0.201389 0.825067
vn 0.999999 -0.001083 0.000879
vn 0.528603 0.647531 0.548892
vn 0.527432 -0.321864 0.786269
vn 0.999999 -0.001083 0.000879
vn 0.527928 0.201389 0.825067
vn 0.527306 -0.722381 0.447340
vn 0.999999 -0.001083 0.000879
vn 0.527432 -0.321864 0.786269
vn 0.527597 -0.847209 -0.062275
vn 0.999999 -0.001083 0.000879
vn 0.527306 -0.722381 0.447340
vn 0.528193 -0.648661 -0.547951
vn 0.999999 -0.001083 0.000879
vn 0.527597 -0.847209 -0.062275
vn 0.528868 -0.202544 -0.824181
vn 0.999999 -0.001083 0.000879
vn 0.528193 -0.648661 -0.547951
vn 0.529364 0.320753 -0.785424
vn 0.999999 -0.001083 0.000879
vn 0.528868 -0.202544 -0.824181
vn 0.529490 0.721324 -0.446466
vn 0.999999 -0.001083 0.000879
vn 0.529364 0.320753 -0.785424
vn 0.529199 0.846140 0.063209
vn 0.999999 -0.001083 0.000879
vn 0.529490 0.721324 -0.446466
vn -0.502443 0.537748 0.677036
vn 0.528603 0.647531 0.548892
vn -0.501783 0.833333 0.231881
vn 0.527928 0.201389 0.825067
vn 0.528603 0.647531 0.548892
vn -0.502443 0.537748 0.677036
vn -0.503098 0.036940 0.863440
vn 0.527928 0.201389 0.825067
vn -0.502443 0.537748 0.677036
vn 0.528603 0.647531 0.548892
vn 0.529199 0.846140 0.063209
vn -0.501783 0.833333 0.231881
vn -0.501783 0.833333 0.231881
vn 0.529199 0.846140 0.063209
vn -0.501371 0.810823 -0.301982
vn 0.529199 0.846140 0.063209
vn 0.529490 0.721324 -0.446466
vn -0.501371 0.810823 -0.301982
vn -0.501371 0.810823 -0.301982
vn 0.529490 0.721324 -0.446466
vn -0.501364 0.478832 -0.720662
vn 0.529490 0.721324 -0.446466
vn 0.529364 0.320753 -0.785424
vn -0.501364 0.478832 -0.720662
vn -0.501364 0.478832 -0.720662
vn 0.529364 0.320753 -0.785424
vn -0.501764 -0.035849 -0.864262
vn 0.529364 0.320753 -0.785424
vn 0.528868 -0.202544 -0.824181
vn -0.501764 -0.035849 -0.864262
vn -0.501764 -0.035849 -0.864262
vn 0.528868 -0.202544 -0.824181
vn -0.502418 -0.536659 -0.677918
vn 0.528868 -0.202544 -0.824181
vn 0.528193 -0.648661 -0.547951
vn -0.502418 -0.536659 -0.677918
vn -0.502418 -0.536659 -0.677918
vn 0.528193 -0.648661 -0.547951
vn -0.503078 -0.832302 -0.232780
vn 0.528193 -0.648661 -0.547951
vn 0.527597 -0.847209 -0.062275
vn -0.503078 -0.832302 -0.232780
vn -0.503078 -0.832302 -0.232780
vn 0.527597 -0.847209 -0.062275
vn -0.503490 -0.809825 0.301133
vn 0.527597 -0.847209 -0.062275
vn 0.527306 -0.722381 0.447340
vn -0.503490 -0.809825 0.301133
vn -0.503490 -0.809825 0.301133
vn 0.527306 -0.722381 0.447340
vn -0.503498 -0.477798 0.719861
vn 0.527306 -0.722381 0.447340
vn 0.527432 -0.321864 0.786269
vn -0.503498 -0.477798 0.719861
vn -0.503498 -0.477798 0.719861
vn 0.527432 -0.321864 0.786269
vn -0.503098 0.036940 0.863440
vn 0.527432 -0.321864 0.786269
vn 0.527928 0.201389 0.825067
vn -0.503098 0.036940 0.863440
vn -0.501783 0.833333 0.231881
vn -0.999999 0.001083 -0.000879
vn -0.502443 0.537748 0.677036
vn -0.501371 0.810823 -0.301982
vn -0.999999 0.001083 -0.000879
vn -0.501783 0.833333 0.231881
vn -0.501364 0.478832 -0.720662
vn -0.999999 0.001083 -0.000879
vn -0.501371 0.810823 -0.301982
vn -0.501764 -0.035849 -0.864262
vn -0.999999 0.001083 -0.000879
vn -0.501364 0.478832 -0.720662
vn -0.502418 -0.536659 -0.677918
vn -0.999999 0.001083 -0.000879
vn -0.501764 -0.035849 -0.864262
vn -0.503078 -0.832302 -0.232780
vn -0.999999 0.001083 -0.000879
vn -0.502418 -0.536659 -0.677918
vn -0.503490 -0.809825 0.301133
vn -0.999999 0.001083 -0.000879
vn -0.503078 -0.832302 -0.232780
vn -0.503498 -0.477798 0.719861
vn -0.999999 0.001083 -0.000879
vn -0.503490 -0.809825 0.301133
vn -0.503098 0.036940 0.863440
vn -0.999999 0.001083 -0.000879
vn -0.503498 -0.477798 0.719861
vn -0.502443 0.537748 0.677036
vn -0.999999 0.001083 -0.000879
vn -0.503098 0.036940 0.863440
usemtl mat_kart_wheel
f 1/1/1 2/2/2 3/3/3
f 4/4/4 2/5/5 1/6/6
f 5/7/7 2/8/8 4/9/9
f 6/10/10 2/11/11 5/12/12
f 7/13/13 2/14/14 6/15/15
f 8/16/16 2/17/17 7/18/18
f 9/19/19 2/20/20 8/21/21
f 10/22/22 2/23/23 9/24/24
f 11/25/25 2/26/26 10/27/27
f 3/28/28 2/29/29 11/30/30
f 12/31/31 1/32/32 13/33/33
f 4/34/34 1/35/35 12/36/36
f 14/37/37 4/38/38 12/39/39
f 1/40/40 3/41/41 13/42/42
f 13/43/43 3/44/44 15/45/45
f 3/46/46 11/47/47 15/48/48
f 15/49/49 11/50/50 16/51/51
f 11/52/52 10/53/53 16/54/54
f 16/55/55 10/56/56 17/57/57
f 10/58/58 9/59/59 17/60/60
f 17/61/61 9/62/62 18/63/63
f 9/64/64 8/65/65 18/66/66
f 18/67/67 8/68/68 19/69/69
f 8/70/70 7/71/71 19/72/72
f 19/73/73 7/74/74 20/75/75
f 7/76/76 6/77/77 20/78/78
f 20/79/79 6/80/80 21/81/81
f 6/82/82 5/83/83 21/84/84
f 21/85/85 5/86/86 14/87/87
f 5/88/88 4/89/89 14/90/90
f 13/91/91 22/92/92 12/93/93
f 15/94/94 22/95/95 13/96/96
f 16/97/97 22/98/98 15/99/99
f 17/100/100 22/101/101 16/102/102
f 18/103/103 22/104/104 17/105/105
f 19/106/106 22/107/107 18/108/108
f 20/109/109 22/110/110 19/111/111
f 21/112/112 22/113/113 20/114/114
f 14/115/115 22/116/116 21/117/117
f 12/118/118 22/119/119 14/120/120
