# This file uses centimeters as units for non-parametric coordinates.

mtllib lamp_collision.mtl
v 5.633034 36.459240 5.611847
v 5.633018 -1.260721 5.611916
v 5.621262 -1.260721 -5.639267
v 5.621262 36.459240 -5.639267
v -5.634331 36.459240 -5.632126
v -5.634575 -1.260721 -5.632103
v -5.622574 36.459240 5.619041
v -5.622551 -1.260721 5.618980
vt 0.157900 0.602500
vt 0.157900 0.002000
vt 0.352400 0.002000
vt 0.352400 0.602500
vt 0.352400 0.602500
vt 0.157900 0.602500
vt 0.157900 0.002000
vt 0.352400 0.002000
vt 0.352400 0.602500
vt 0.157900 0.002000
vt 0.352400 0.002000
vt 0.157900 0.602500
vt 0.157900 0.602500
vt 0.352400 0.002000
vt 0.352400 0.602500
vt 0.157900 0.002000
vn 0.806212 0.273549 0.524589
vn 0.447854 -0.000000 0.894107
vn 0.706512 0.000000 -0.707701
vn 0.806212 0.273549 0.524589
vn 0.706512 0.000000 -0.707701
vn 0.662986 0.345363 -0.664209
vn -0.525968 0.273322 -0.805390
vn 0.662986 0.345363 -0.664209
vn 0.706512 0.000000 -0.707701
vn -0.525968 0.273322 -0.805390
vn 0.706512 0.000000 -0.707701
vn -0.894862 0.000002 -0.446343
vn -0.687049 0.233185 0.688177
vn -0.894862 0.000002 -0.446343
vn -0.706507 -0.000002 0.707706
vn -0.525968 0.273322 -0.805390
vn -0.894862 0.000002 -0.446343
vn -0.687049 0.233185 0.688177
vn -0.687049 0.233185 0.688177
vn 0.447854 -0.000000 0.894107
vn 0.806212 0.273549 0.524589
vn -0.706507 -0.000002 0.707706
vn 0.447854 -0.000000 0.894107
vn -0.687049 0.233185 0.688177
usemtl lamp_model:mat_lamp_body
f 1/1/1 2/2/2 3/3/3
f 1/1/4 3/3/5 4/4/6
f 5/5/7 4/6/8 3/7/9
f 5/5/10 3/7/11 6/8/12
f 7/9/13 6/10/14 8/11/15
f 5/12/16 6/10/17 7/9/18
f 7/13/19 2/14/20 1/15/21
f 8/16/22 2/14/23 7/13/24
