# This file uses centimeters as units for non-parametric coordinates.

mtllib lamp_model.mtl
v -0.005394 148.761246 -0.011337
v 1.375351 142.201309 1.366638
v 1.373886 142.201309 -1.388046
v -1.375320 142.201309 1.368782
v -1.376793 142.201309 -1.385895
v -6.575279 118.650291 -6.573059
v -6.562759 118.650291 6.563065
v 6.573830 118.650291 6.553772
v 6.561409 118.650291 -6.581268
v -0.005394 114.155296 -0.011337
v -11.720192 135.260269 -11.710739
v 11.718613 135.260269 11.692459
v -11.702621 135.260269 11.708771
v 11.700920 135.260269 -11.726013
v -0.005394 142.605240 -0.011337
v 5.633034 36.459240 5.611847
v 5.633018 -1.260721 5.611916
v 5.621262 -1.260721 -5.639267
v 5.621262 36.459240 -5.639267
v -5.634331 36.459240 -5.632126
v -5.634575 -1.260721 -5.632103
v -5.622574 36.459240 5.619041
v -5.622551 -1.260721 5.618980
v -0.005394 46.539318 -0.011337
v -8.109756 135.274246 -8.140930
v 5.155846 118.522240 -5.233749
v -5.189674 118.522240 -5.225708
v 8.080482 135.274246 -8.149353
v 8.090195 135.274246 8.040100
v 5.161835 118.522301 5.112503
v -8.100342 135.274246 8.050491
v -5.183800 118.522301 5.119492
v -5.933350 142.201309 -5.929756
v 5.918625 142.201309 -5.936417
v 8.143631 137.445328 -8.167084
v -8.158249 137.445328 -8.153282
v -5.920227 142.201309 5.918106
v -8.145195 137.445328 8.146957
v 5.931908 142.201309 5.910515
v 8.156540 137.445328 8.135956
v -4.516647 105.466331 -4.523155
v -2.243256 102.551414 2.232635
v -4.515709 105.466331 4.509949
v -2.238464 102.551414 -2.248100
v -2.125374 108.380272 -2.128075
v 2.112038 108.380272 -2.130707
v 4.514236 105.466331 -4.529053
v -2.010620 113.719261 -2.015831
v -2.113655 108.380272 2.112541
v -2.005821 113.719261 1.999237
v 2.123436 108.380272 2.108749
v 2.008781 113.719261 1.997505
v 4.515091 105.466331 4.502846
v 2.004517 113.719261 -2.019501
v -3.531281 40.494274 -3.539185
v 2.241402 102.551414 -2.250870
v 3.527435 40.494274 -3.545547
v 2.237000 102.551414 2.228996
v 3.529922 40.494274 3.520905
v -3.529266 40.494274 3.527222
v -3.768829 113.719383 -3.775986
v -0.031998 108.380272 -0.036583
v -0.029961 108.380272 0.017303
v -0.005394 108.342308 -0.011337
v -3.766846 113.719383 3.761627
v 0.030540 108.380272 0.017326
v 3.767372 113.719383 3.756744
v 0.028358 108.380272 -0.035599
v 3.764763 113.719383 -3.779991
v -0.005394 117.201317 -0.011337
v 351.033844 0.439413 349.401978
v -351.239594 0.439413 -349.489990
v -351.453979 0.439413 347.274689
v 345.607788 0.439413 -347.339478
v -6.095291 118.423241 -6.112534
v 6.093987 118.423241 6.092323
v -6.106476 118.423241 6.081932
v 6.105194 118.423241 -6.102173
v -8.591812 136.076309 8.562248
v 8.576004 136.076309 8.577026
v -8.577057 136.076309 -8.597298
v 8.590523 136.076309 -8.582474
vt 0.547600 0.695400
vt 0.505400 0.508500
vt 0.589800 0.508500
vt 0.505400 0.508500
vt 0.589800 0.508500
vt 0.505400 0.508500
vt 0.589800 0.508500
vt 0.589800 0.508500
vt 0.505400 0.508500
vt 0.533900 0.941600
vt 0.373900 0.941600
vt 0.373906 0.781540
vt 0.533900 0.781500
vt 0.626800 0.748500
vt 0.787300 0.623500
vt 0.947800 0.748500
vt 0.947800 0.748500
vt 0.626800 0.748500
vt 0.626800 0.748500
vt 0.947800 0.748500
vt 0.947800 0.748500
vt 0.626800 0.748500
vt 0.373900 0.781500
vt 0.533902 0.941589
vt 0.373900 0.941600
vt 0.533900 0.781500
vt 0.995700 0.992700
vt 0.535600 0.992700
vt 0.765700 0.893600
vt 0.995700 0.992700
vt 0.535600 0.992700
vt 0.995700 0.992700
vt 0.535600 0.992700
vt 0.535600 0.992700
vt 0.995700 0.992700
vt 0.157900 0.602500
vt 0.157900 0.002000
vt 0.352400 0.002000
vt 0.352400 0.602500
vt 0.352400 0.602500
vt 0.157900 0.602500
vt 0.157900 0.002000
vt 0.352400 0.002000
vt 0.352400 0.602500
vt 0.157900 0.002000
vt 0.352400 0.002000
vt 0.157900 0.602500
vt 0.157900 0.602500
vt 0.352400 0.002000
vt 0.352400 0.602500
vt 0.157900 0.002000
vt 0.255200 0.706900
vt 0.988000 -0.003900
vt 0.407200 0.398000
vt 0.407200 0.075200
vt 0.988000 0.477100
vt 0.988000 0.477100
vt 0.407200 0.075200
vt 0.988000 -0.003900
vt 0.407200 0.398000
vt 0.988000 0.477100
vt 0.407200 0.398000
vt 0.407200 0.075200
vt 0.988000 -0.003900
vt 0.988000 0.477100
vt 0.407200 0.075200
vt 0.988000 -0.003900
vt 0.407200 0.398000
vt 0.650100 0.763500
vt 0.881200 0.763500
vt 0.925100 0.893600
vt 0.606300 0.893600
vt 0.881200 0.763500
vt 0.925100 0.893600
vt 0.650100 0.763500
vt 0.606300 0.893600
vt 0.881200 0.763500
vt 0.925100 0.893600
vt 0.650100 0.763500
vt 0.606300 0.893600
vt 0.925100 0.893600
vt 0.606300 0.893600
vt 0.650100 0.763500
vt 0.881200 0.763500
vt 0.525300 0.933000
vt 0.525300 0.790100
vt 0.382400 0.790100
vt 0.382420 0.933003
vt 0.047700 0.555500
vt 0.110300 0.530700
vt 0.108300 0.555500
vt 0.045600 0.530700
vt 0.049700 0.580400
vt 0.106200 0.580400
vt 0.108300 0.555500
vt 0.053500 0.625900
vt 0.106200 0.580400
vt 0.102500 0.625900
vt 0.053500 0.625900
vt 0.106200 0.580400
vt 0.102500 0.625900
vt 0.049700 0.580400
vt 0.108300 0.555500
vt 0.047700 0.555500
vt 0.053500 0.625900
vt 0.102500 0.625900
vt 0.049700 0.580400
vt 0.001300 0.002000
vt 0.110300 0.530700
vt 0.153500 0.002000
vt 0.045600 0.530700
vt 0.001300 0.002000
vt 0.153500 0.002000
vt 0.047700 0.555500
vt 0.045600 0.530700
vt 0.110300 0.530700
vt 0.153500 0.002000
vt 0.001300 0.002000
vt 0.341200 0.672600
vt 0.426220 0.602500
vt 0.426220 0.602500
vt 0.426100 0.602000
vt 0.341200 0.672600
vt 0.426220 0.602500
vt 0.509300 0.672600
vt 0.341200 0.672600
vt 0.426220 0.602500
vt 0.509300 0.672600
vt 0.509300 0.672600
vt 0.341200 0.672600
vt 0.509300 0.672600
vt 0.425200 0.737400
vt -0.989461 -1.002565
vt -0.002067 -0.004525
vt -0.989461 -0.004525
vt -0.002067 -1.002565
vt 104.273003 0.549781
vt 104.732002 0.170375
vt 104.732002 0.549781
vt 104.273003 0.170375
vt 22.719101 -104.403000
vt 22.260700 -104.403000
vt 22.260700 -104.862000
vt 22.719101 -104.862000
vt 22.734400 0.531938
vt 22.275999 0.152532
vt 22.734400 0.152532
vt 22.275999 0.531938
vt -104.265999 0.158559
vt -104.723999 0.537965
vt -104.723999 0.158559
vt -104.265999 0.537965
vt -22.262699 0.554995
vt -22.721201 0.175589
vt -22.262699 0.175589
vt -22.721201 0.554995
vn -0.000344 1.000000 -0.000123
vn 0.678209 0.285032 0.677339
vn 0.677338 0.284772 -0.678321
vn -0.677589 0.284209 0.678306
vn 0.678209 0.285032 0.677339
vn -0.000344 1.000000 -0.000123
vn -0.000344 1.000000 -0.000123
vn -0.678527 0.283819 -0.677531
vn -0.677589 0.284209 0.678306
vn -0.678527 0.283819 -0.677531
vn -0.000344 1.000000 -0.000123
vn 0.677338 0.284772 -0.678321
vn -0.648323 0.401085 -0.647154
vn -0.548092 -0.631326 0.548655
vn 0.648256 0.400789 0.647404
vn 0.547611 -0.631547 -0.548881
vn -0.648323 0.401085 -0.647154
vn 0.648256 0.400789 0.647404
vn -0.648323 0.401085 -0.647154
vn -0.000152 -1.000000 -0.000068
vn -0.548092 -0.631326 0.548655
vn -0.000152 -1.000000 -0.000068
vn 0.648256 0.400789 0.647404
vn -0.548092 -0.631326 0.548655
vn 0.547611 -0.631547 -0.548881
vn -0.000152 -1.000000 -0.000068
vn -0.648323 0.401085 -0.647154
vn 0.547611 -0.631547 -0.548881
vn 0.648256 0.400789 0.647404
vn -0.000152 -1.000000 -0.000068
vn -0.655431 -0.376929 -0.654472
vn 0.655412 -0.376758 0.654591
vn -0.519121 0.678561 0.519682
vn 0.518852 0.678644 -0.519841
vn 0.655412 -0.376758 0.654591
vn -0.655431 -0.376929 -0.654472
vn 0.518852 0.678644 -0.519841
vn -0.655431 -0.376929 -0.654472
vn -0.000081 1.000000 -0.000048
vn -0.000081 1.000000 -0.000048
vn -0.519121 0.678561 0.519682
vn 0.655412 -0.376758 0.654591
vn -0.655431 -0.376929 -0.654472
vn -0.519121 0.678561 0.519682
vn -0.000081 1.000000 -0.000048
vn 0.518852 0.678644 -0.519841
vn -0.000081 1.000000 -0.000048
vn 0.655412 -0.376758 0.654591
vn 0.806212 0.273549 0.524589
vn 0.447854 -0.000000 0.894107
vn 0.706512 -0.000000 -0.707701
vn 0.806212 0.273549 0.524589
vn 0.706512 -0.000000 -0.707701
vn 0.662986 0.345363 -0.664209
vn -0.525968 0.273322 -0.805390
vn 0.662986 0.345363 -0.664209
vn 0.706512 -0.000000 -0.707701
vn -0.525968 0.273322 -0.805390
vn 0.706512 -0.000000 -0.707701
vn -0.894862 0.000002 -0.446343
vn -0.687049 0.233185 0.688177
vn -0.894862 0.000002 -0.446343
vn -0.706507 -0.000002 0.707706
vn -0.525968 0.273322 -0.805390
vn -0.894862 0.000002 -0.446343
vn -0.687049 0.233185 0.688177
vn -0.687049 0.233185 0.688177
vn 0.447854 -0.000000 0.894107
vn 0.806212 0.273549 0.524589
vn -0.706507 -0.000002 0.707706
vn 0.447854 -0.000000 0.894107
vn -0.687049 0.233185 0.688177
vn -0.687049 0.233185 0.688177
vn 0.806212 0.273549 0.524589
vn -0.000177 1.000000 -0.000046
vn -0.000177 1.000000 -0.000046
vn -0.525968 0.273322 -0.805390
vn -0.687049 0.233185 0.688177
vn -0.000177 1.000000 -0.000046
vn 0.806212 0.273549 0.524589
vn 0.662986 0.345363 -0.664209
vn -0.525968 0.273322 -0.805390
vn -0.000177 1.000000 -0.000046
vn 0.662986 0.345363 -0.664209
vn -0.687007 -0.239108 -0.686184
vn 0.686076 -0.239440 -0.687000
vn -0.687045 -0.239162 -0.686127
vn -0.687007 -0.239108 -0.686184
vn 0.686126 -0.239352 -0.686980
vn 0.686076 -0.239440 -0.687000
vn 0.871080 -0.228264 0.434874
vn 0.686076 -0.239440 -0.687000
vn 0.686126 -0.239352 -0.686980
vn 0.871080 -0.228264 0.434874
vn 0.435969 -0.228329 0.870516
vn 0.686076 -0.239440 -0.687000
vn -0.434899 -0.228138 0.871101
vn -0.870658 -0.227861 0.435930
vn 0.435969 -0.228329 0.870516
vn -0.434899 -0.228138 0.871101
vn 0.435969 -0.228329 0.870516
vn 0.871080 -0.228264 0.434874
vn -0.687007 -0.239108 -0.686184
vn -0.870658 -0.227861 0.435930
vn -0.434899 -0.228138 0.871101
vn -0.687007 -0.239108 -0.686184
vn -0.687045 -0.239162 -0.686127
vn -0.870658 -0.227861 0.435930
vn -0.235800 0.850318 -0.470486
vn 0.595041 0.746385 -0.298054
vn 0.378149 0.531985 -0.757625
vn -0.757934 0.531609 -0.378059
vn -0.235800 0.850318 -0.470486
vn 0.378149 0.531985 -0.757625
vn -0.235800 0.850318 -0.470486
vn -0.757934 0.531609 -0.378059
vn -0.595052 0.746349 0.298121
vn -0.595052 0.746349 0.298121
vn -0.757934 0.531609 -0.378059
vn -0.378181 0.531950 0.757634
vn 0.235790 0.850311 0.470504
vn 0.757890 0.531701 0.378016
vn 0.595041 0.746385 -0.298054
vn 0.595041 0.746385 -0.298054
vn 0.757890 0.531701 0.378016
vn 0.378149 0.531985 -0.757625
vn -0.378181 0.531950 0.757634
vn 0.757890 0.531701 0.378016
vn 0.235790 0.850311 0.470504
vn -0.378181 0.531950 0.757634
vn 0.235790 0.850311 0.470504
vn -0.595052 0.746349 0.298121
vn -0.235800 0.850318 -0.470486
vn -0.595052 0.746349 0.298121
vn 0.235790 0.850311 0.470504
vn 0.595041 0.746385 -0.298054
vn -0.235800 0.850318 -0.470486
vn 0.235790 0.850311 0.470504
vn -0.709607 0.017564 -0.704379
vn -0.614023 -0.425640 0.664685
vn -0.703857 0.018396 0.710104
vn -0.709607 0.017564 -0.704379
vn -0.664608 -0.425381 -0.614286
vn -0.614023 -0.425640 0.664685
vn -0.709607 0.017564 -0.704379
vn -0.599727 0.464104 -0.651870
vn 0.651684 0.463672 -0.600263
vn -0.709607 0.017564 -0.704379
vn 0.651684 0.463672 -0.600263
vn 0.703977 0.018345 -0.709986
vn -0.894864 0.028042 -0.445456
vn -0.599727 0.464104 -0.651870
vn -0.651546 0.463726 0.600372
vn -0.894864 0.028042 -0.445456
vn -0.651546 0.463726 0.600372
vn -0.446358 0.027832 0.894422
vn -0.446358 0.027832 0.894422
vn 0.599693 0.464128 0.651885
vn 0.894787 0.027923 0.445620
vn -0.651546 0.463726 0.600372
vn 0.599693 0.464128 0.651885
vn -0.446358 0.027832 0.894422
vn -0.651546 0.463726 0.600372
vn 0.709620 0.017548 0.704366
vn 0.599693 0.464128 0.651885
vn -0.703857 0.018396 0.710104
vn 0.709620 0.017548 0.704366
vn -0.651546 0.463726 0.600372
vn -0.599727 0.464104 -0.651870
vn -0.709607 0.017564 -0.704379
vn -0.703857 0.018396 0.710104
vn -0.599727 0.464104 -0.651870
vn -0.703857 0.018396 0.710104
vn -0.651546 0.463726 0.600372
vn 0.894787 0.027923 0.445620
vn 0.651684 0.463672 -0.600263
vn 0.446308 0.027722 -0.894450
vn 0.894787 0.027923 0.445620
vn 0.599693 0.464128 0.651885
vn 0.651684 0.463672 -0.600263
vn -0.447634 0.027929 -0.893781
vn 0.614059 -0.425669 -0.664633
vn 0.894112 0.027897 -0.446975
vn -0.447634 0.027929 -0.893781
vn -0.664608 -0.425381 -0.614286
vn 0.614059 -0.425669 -0.664633
vn 0.664696 -0.425258 0.614276
vn 0.894112 0.027897 -0.446975
vn 0.614059 -0.425669 -0.664633
vn 0.664696 -0.425258 0.614276
vn 0.447713 0.027936 0.893741
vn 0.894112 0.027897 -0.446975
vn -0.599727 0.464104 -0.651870
vn -0.894864 0.028042 -0.445456
vn 0.446308 0.027722 -0.894450
vn -0.599727 0.464104 -0.651870
vn 0.446308 0.027722 -0.894450
vn 0.651684 0.463672 -0.600263
vn -0.664608 -0.425381 -0.614286
vn -0.894140 0.027896 0.446918
vn -0.614023 -0.425640 0.664685
vn -0.664608 -0.425381 -0.614286
vn -0.447634 0.027929 -0.893781
vn -0.894140 0.027896 0.446918
vn 0.599693 0.464128 0.651885
vn 0.709620 0.017548 0.704366
vn 0.703977 0.018345 -0.709986
vn 0.599693 0.464128 0.651885
vn 0.703977 0.018345 -0.709986
vn 0.651684 0.463672 -0.600263
vn -0.709607 0.017564 -0.704379
vn 0.703977 0.018345 -0.709986
vn -0.664608 -0.425381 -0.614286
vn -0.664608 -0.425381 -0.614286
vn 0.703977 0.018345 -0.709986
vn 0.614059 -0.425669 -0.664633
vn -0.703857 0.018396 0.710104
vn -0.614023 -0.425640 0.664685
vn 0.664696 -0.425258 0.614276
vn -0.703857 0.018396 0.710104
vn 0.664696 -0.425258 0.614276
vn 0.709620 0.017548 0.704366
vn -0.614023 -0.425640 0.664685
vn 0.447713 0.027936 0.893741
vn 0.664696 -0.425258 0.614276
vn -0.894140 0.027896 0.446918
vn 0.447713 0.027936 0.893741
vn -0.614023 -0.425640 0.664685
vn 0.709620 0.017548 0.704366
vn 0.664696 -0.425258 0.614276
vn 0.614059 -0.425669 -0.664633
vn 0.709620 0.017548 0.704366
vn 0.614059 -0.425669 -0.664633
vn 0.703977 0.018345 -0.709986
vn -0.843081 -0.085978 -0.530869
vn -0.014656 -0.999861 -0.007899
vn -0.014656 -0.999861 -0.007899
vn -0.014656 -0.999861 -0.007899
vn -0.014656 -0.999861 -0.007899
vn -0.014656 -0.999861 -0.007899
vn -0.540708 -0.091403 0.836230
vn -0.014656 -0.999861 -0.007899
vn 0.843726 -0.085111 0.529984
vn -0.540708 -0.091403 0.836230
vn -0.014656 -0.999861 -0.007899
vn -0.014656 -0.999861 -0.007899
vn 0.843726 -0.085111 0.529984
vn -0.014656 -0.999861 -0.007899
vn 0.544356 -0.093238 -0.833656
vn 0.843726 -0.085111 0.529984
vn -0.014656 -0.999861 -0.007899
vn -0.014656 -0.999861 -0.007899
vn -0.014656 -0.999861 -0.007899
vn -0.014656 -0.999861 -0.007899
vn -0.014656 -0.999861 -0.007899
vn -0.843081 -0.085978 -0.530869
vn -0.014656 -0.999861 -0.007899
vn -0.540708 -0.091403 0.836230
vn -0.014656 -0.999861 -0.007899
vn 0.544356 -0.093238 -0.833656
vn -0.014656 -0.999861 -0.007899
vn -0.843081 -0.085978 -0.530869
vn 0.544356 -0.093238 -0.833656
vn -0.014656 -0.999861 -0.007899
vn -0.014656 -0.999861 -0.007899
vn -0.014656 -0.999861 -0.007899
vn -0.014656 -0.999861 -0.007899
vn -0.014656 -0.999861 -0.007899
vn -0.014656 -0.999861 -0.007899
vn -0.014656 -0.999861 -0.007899
vn 0.544356 -0.093238 -0.833656
vn -0.000271 1.000000 -0.000148
vn 0.843726 -0.085111 0.529984
vn -0.000271 1.000000 -0.000148
vn -0.540708 -0.091403 0.836230
vn 0.843726 -0.085111 0.529984
vn -0.843081 -0.085978 -0.530869
vn -0.540708 -0.091403 0.836230
vn -0.000271 1.000000 -0.000148
vn 0.544356 -0.093238 -0.833656
vn -0.843081 -0.085978 -0.530869
vn -0.000271 1.000000 -0.000148
vn 0.000000 1.000000 0.000000
vn 0.000000 1.000000 0.000000
vn 0.000000 1.000000 0.000000
vn 0.000000 1.000000 0.000000
vn 0.000000 1.000000 0.000000
vn 0.000000 1.000000 0.000000
vn -0.699036 0.156180 0.697823
vn 0.692913 -0.195095 0.694125
vn 0.445855 0.775721 0.446622
vn -0.694133 -0.195082 0.692909
vn 0.692913 -0.195095 0.694125
vn -0.699036 0.156180 0.697823
vn -0.445852 0.775720 -0.446625
vn -0.699036 0.156180 0.697823
vn 0.445855 0.775721 0.446622
vn 0.699034 0.156175 -0.697826
vn -0.445852 0.775720 -0.446625
vn 0.445855 0.775721 0.446622
vn 0.699034 0.156175 -0.697826
vn 0.692913 -0.195095 0.694125
vn 0.694132 -0.195081 -0.692910
vn 0.445855 0.775721 0.446622
vn 0.692913 -0.195095 0.694125
vn 0.699034 0.156175 -0.697826
vn -0.692912 -0.195091 -0.694127
vn 0.699034 0.156175 -0.697826
vn 0.694132 -0.195081 -0.692910
vn -0.445852 0.775720 -0.446625
vn 0.699034 0.156175 -0.697826
vn -0.692912 -0.195091 -0.694127
vn -0.699036 0.156180 0.697823
vn -0.692912 -0.195091 -0.694127
vn -0.694133 -0.195082 0.692909
vn -0.445852 0.775720 -0.446625
vn -0.692912 -0.195091 -0.694127
vn -0.699036 0.156180 0.697823
usemtl mat_lamp_body
f 1/1/1 2/2/2 3/3/3
f 4/4/4 2/5/5 1/1/6
f 1/1/7 5/6/8 4/7/9
f 5/8/10 1/1/11 3/9/12
f 6/10/13 7/11/14 8/12/15
f 9/13/16 6/10/17 8/12/18
f 6/14/19 10/15/20 7/16/21
f 10/15/22 8/17/23 7/18/24
f 9/19/25 10/15/26 6/20/27
f 9/21/28 8/22/29 10/15/30
f 11/23/31 12/24/32 13/25/33
f 14/26/34 12/24/35 11/23/36
f 14/27/37 11/28/38 15/29/39
f 15/29/40 13/30/41 12/31/42
f 11/32/43 13/33/44 15/29/45
f 14/34/46 15/29/47 12/35/48
f 16/36/49 17/37/50 18/38/51
f 16/36/52 18/38/53 19/39/54
f 20/40/55 19/41/56 18/42/57
f 20/40/58 18/42/59 21/43/60
f 22/44/61 21/45/62 23/46/63
f 20/47/64 21/45/65 22/44/66
f 22/48/67 17/49/68 16/50/69
f 23/51/70 17/49/71 22/48/72
f 22/48/73 16/50/74 24/52/75
f 24/52/76 20/47/77 22/44/78
f 24/52/79 16/36/80 19/39/81
f 20/40/82 24/52/83 19/41/84
f 25/53/85 26/54/86 27/55/87
f 25/53/88 28/56/89 26/54/90
f 29/57/91 26/58/92 28/59/93
f 29/57/94 30/60/95 26/58/96
f 31/61/97 32/62/98 30/63/99
f 31/61/100 30/63/101 29/64/102
f 25/65/103 32/66/104 31/67/105
f 25/65/106 27/68/107 32/66/108
f 33/69/109 34/70/110 35/71/111
f 36/72/112 33/69/113 35/71/114
f 33/73/115 36/74/116 37/75/117
f 37/75/118 36/74/119 38/76/120
f 39/77/121 40/78/122 34/79/123
f 34/79/124 40/78/125 35/80/126
f 38/81/127 40/82/128 39/83/129
f 38/81/130 39/83/131 37/84/132
f 33/85/133 37/86/134 39/87/135
f 34/88/136 33/85/137 39/87/138
f 41/89/139 42/90/140 43/91/141
f 41/89/142 44/92/143 42/90/144
f 41/89/145 45/93/146 46/94/147
f 41/89/148 46/94/149 47/95/150
f 48/96/151 45/93/152 49/97/153
f 48/96/154 49/97/155 50/98/156
f 50/99/157 51/100/158 52/101/159
f 49/102/160 51/100/161 50/99/162
f 49/102/163 53/103/164 51/100/165
f 43/104/166 53/103/167 49/102/168
f 45/93/169 41/89/170 43/91/171
f 45/93/172 43/91/173 49/97/174
f 52/105/175 46/94/176 54/106/177
f 52/105/178 51/107/179 46/94/180
f 55/108/181 56/109/182 57/110/183
f 55/108/184 44/92/185 56/109/186
f 58/111/187 57/110/188 56/109/189
f 58/111/190 59/112/191 57/110/192
f 45/93/193 48/96/194 54/106/195
f 45/93/196 54/106/197 46/94/198
f 44/92/199 60/113/200 42/90/201
f 44/92/202 55/108/203 60/113/204
f 51/107/205 53/114/206 47/95/207
f 51/107/208 47/95/209 46/94/210
f 41/89/211 47/95/212 44/92/213
f 44/92/214 47/95/215 56/109/216
f 43/104/217 42/115/218 58/116/219
f 43/104/220 58/116/221 53/103/222
f 42/115/223 59/117/224 58/116/225
f 60/118/226 59/117/227 42/115/228
f 53/114/229 58/111/230 56/109/231
f 53/114/232 56/109/233 47/95/234
f 61/119/235 62/120/236 63/121/237
f 62/120/238 64/122/239 63/121/240
f 65/123/241 66/124/242 67/125/243
f 65/123/244 63/121/245 66/124/246
f 67/126/247 68/127/248 69/128/249
f 67/126/250 66/124/251 68/127/252
f 66/124/253 64/122/254 68/127/255
f 61/119/256 63/121/257 65/129/258
f 62/120/259 69/130/260 68/127/261
f 61/131/262 69/130/263 62/120/264
f 63/121/265 64/122/266 66/124/267
f 62/120/268 68/127/269 64/122/270
f 69/128/271 70/132/272 67/126/273
f 70/132/274 65/123/275 67/125/276
f 61/119/277 65/129/278 70/132/279
f 69/130/280 61/131/281 70/132/282
usemtl mat_lamp_cast
f 71/133/283 72/134/284 73/135/285
f 74/136/286 72/134/287 71/133/288
f 79/137/289 76/138/290 80/139/291
f 77/140/292 76/138/293 79/137/294
f 81/141/295 79/142/296 80/143/297
f 82/144/298 81/141/299 80/143/300
f 82/145/301 76/146/302 78/147/303
f 80/148/304 76/146/305 82/145/306
f 75/149/307 82/150/308 78/151/309
f 81/152/310 82/150/311 75/149/312
f 79/153/313 75/154/314 77/155/315
f 81/156/316 75/154/317 79/153/318
